<?xml version="1.0" encoding="utf-8"?>
<!-- Generator: Adobe Illustrator 23.0.4, SVG Export Plug-In . SVG Version: 6.00 Build 0)  -->
<svg version="1.1" id="Capa_1" xmlns="http://www.w3.org/2000/svg" xmlns:xlink="http://www.w3.org/1999/xlink" x="0px" y="0px"
	 viewBox="0 0 18 24" style="enable-background:new 0 0 18 24;" xml:space="preserve">
<style type="text/css">
	.st0{fill:#FFFFFF;}
</style>
<path class="st0" d="M0.6,8.4c0,4.2,3.2,8.7,6,12.6c0.7,0.9,1.3,1.8,1.9,2.7C8.5,23.9,8.8,24,9,24c0.2,0,0.5-0.1,0.6-0.3
	c0.6-0.8,1.2-1.7,1.9-2.7c2.8-3.9,6-8.4,6-12.6C17.4,3.8,13.7,0,9,0C4.3,0,0.6,3.8,0.6,8.4z M13.2,8.4c0,2.3-1.9,4.2-4.2,4.2
	c-2.3,0-4.2-1.9-4.2-4.2c0-2.3,1.9-4.2,4.2-4.2C11.3,4.2,13.2,6.1,13.2,8.4z"/>
<path class="st0" d="M9,11.2c1.6,0,2.8-1.3,2.8-2.8S10.6,5.6,9,5.6S6.2,6.9,6.2,8.4S7.4,11.2,9,11.2z"/>
</svg>
